<?xml version="1.0" encoding="UTF-8"?>
<!DOCTYPE svg PUBLIC "-//W3C//DTD SVG 1.1//EN" "http://www.w3.org/Graphics/SVG/1.1/DTD/svg11.dtd">
<svg xmlns="http://www.w3.org/2000/svg" version="1.1" width="30px" height="30px"
     style="shape-rendering:geometricPrecision; text-rendering:geometricPrecision; image-rendering:optimizeQuality; fill-rule:evenodd; clip-rule:evenodd"
>
    <g>
        <path style="opacity:1" fill="#765005"
              d="M 11.5,-0.5 C 12.5,-0.5 13.5,-0.5 14.5,-0.5C 14.5,-0.166667 14.5,0.166667 14.5,0.5C 13.1834,3.23014 13.1834,6.06347 14.5,9C 13.9056,9.46434 13.2389,9.63101 12.5,9.5C 6.79707,10.5322 6.29707,12.5322 11,15.5C 13.0197,14.9681 13.853,13.6348 13.5,11.5C 13.8333,11.5 14.1667,11.5 14.5,11.5C 14.8333,12.1667 15.1667,12.8333 15.5,13.5C 12.5733,16.2932 13.2399,17.9599 17.5,18.5C 17.19,21.7131 17.5233,24.7131 18.5,27.5C 18.1667,28.1667 17.8333,28.8333 17.5,29.5C 16.8333,29.5 16.1667,29.5 15.5,29.5C 15.5,29.1667 15.5,28.8333 15.5,28.5C 16.6341,26.0336 16.8007,23.367 16,20.5C 10.885,17.6928 5.71834,15.0261 0.5,12.5C 0.5,12.1667 0.5,11.8333 0.5,11.5C 4.16667,7.5 7.83333,3.5 11.5,-0.5 Z"/>
    </g>
    <g>
        <path style="opacity:1" fill="#855807"
              d="M 14.5,0.5 C 19.6248,2.56237 24.6248,4.8957 29.5,7.5C 29.5,10.8333 29.5,14.1667 29.5,17.5C 25.8333,20.8333 22.1667,24.1667 18.5,27.5C 17.5233,24.7131 17.19,21.7131 17.5,18.5C 18.2341,17.2921 18.5674,15.9587 18.5,14.5C 20.7446,13.1722 21.0779,11.3388 19.5,9C 17.0722,8.25301 15.4056,9.08634 14.5,11.5C 14.1667,11.5 13.8333,11.5 13.5,11.5C 13.1667,10.8333 12.8333,10.1667 12.5,9.5C 13.2389,9.63101 13.9056,9.46434 14.5,9C 13.1834,6.06347 13.1834,3.23014 14.5,0.5 Z"/>
    </g>
    <g>
        <path style="opacity:1" fill="#3958d0"
              d="M 18.5,14.5 C 17.609,13.8902 16.609,13.5569 15.5,13.5C 15.1667,12.8333 14.8333,12.1667 14.5,11.5C 15.4056,9.08634 17.0722,8.25301 19.5,9C 21.0779,11.3388 20.7446,13.1722 18.5,14.5 Z"/>
    </g>
    <g>
        <path style="opacity:1" fill="#dd3322"
              d="M 12.5,9.5 C 12.8333,10.1667 13.1667,10.8333 13.5,11.5C 13.853,13.6348 13.0197,14.9681 11,15.5C 6.29707,12.5322 6.79707,10.5322 12.5,9.5 Z"/>
    </g>
    <g>
        <path style="opacity:1" fill="#000000"
              d="M -0.5,11.5 C -0.166667,11.5 0.166667,11.5 0.5,11.5C 0.5,11.8333 0.5,12.1667 0.5,12.5C 0.264145,15.6085 0.597478,18.6085 1.5,21.5C 0.833333,21.5 0.166667,21.5 -0.5,21.5C -0.5,18.1667 -0.5,14.8333 -0.5,11.5 Z"/>
    </g>
    <g>
        <path style="opacity:1" fill="#a96e06"
              d="M 0.5,12.5 C 5.71834,15.0261 10.885,17.6928 16,20.5C 16.8007,23.367 16.6341,26.0336 15.5,28.5C 10.5156,26.6745 5.8489,24.3411 1.5,21.5C 0.597478,18.6085 0.264145,15.6085 0.5,12.5 Z"/>
    </g>
    <g>
        <path style="opacity:1" fill="#49b527"
              d="M 15.5,13.5 C 16.609,13.5569 17.609,13.8902 18.5,14.5C 18.5674,15.9587 18.2341,17.2921 17.5,18.5C 13.2399,17.9599 12.5733,16.2932 15.5,13.5 Z"/>
    </g>
</svg>
